<?xml version="1.0" encoding="utf-8"?>
<!-- Generator: Adobe Illustrator 21.0.0, SVG Export Plug-In . SVG Version: 6.00 Build 0)  -->
<svg version="1.2" baseProfile="tiny" id="Layer_1" xmlns="http://www.w3.org/2000/svg" xmlns:xlink="http://www.w3.org/1999/xlink"
	 x="0px" y="0px" viewBox="0 0 80 80" xml:space="preserve">
<path d="M31.7,13.2l-6.3,6.3V31v2V68h24.7l6.3-6.3V50.1v-2V13.2H31.7z M32.6,25.1V14.4h22.6v34.6H44.5V25.1H32.6z M43.3,49.3
	L38.5,54V31.9l4.8-4.8V49.3z M26.6,20l4.8-4.8v10.2l-4.8,4.8V20z M32.2,26.3h10.2L37.7,31H27.5L32.2,26.3z M26.6,32.2h10.7v23.8
	h11.9v10.7H26.6V32.2z M55.2,61.2L50.5,66V55.7l4.8-4.8V61.2z M49.6,54.9H39.4l4.8-4.8h10.2L49.6,54.9z"/>
</svg>
